<svg width="216.64" height="18.16" viewBox="0 0 216.64 18.16" xmlns="http://www.w3.org/2000/svg"><g id="svgGroup" stroke-linecap="round" fill-rule="evenodd" font-size="9pt" stroke="#000" stroke-width="0.25mm" fill="#000" style="stroke:#000;stroke-width:0.25mm;fill:#000"><path d="M 19.12 3.56 L 19.4 3.54 L 19.38 3.8 L 19.16 3.82 A 4.225 4.225 0 0 0 18.819 3.87 Q 18.485 3.934 18.282 4.044 A 0.812 0.812 0 0 0 18.14 4.14 A 0.68 0.68 0 0 0 17.959 4.398 Q 17.86 4.632 17.86 5 L 17.86 5.34 A 31.622 31.622 0 0 1 17.758 7.956 Q 17.651 9.249 17.429 10.346 A 13.841 13.841 0 0 1 17 11.98 A 9.689 9.689 0 0 1 15.856 14.351 A 7.492 7.492 0 0 1 13.44 16.64 A 7.114 7.114 0 0 1 11.213 14.547 A 8.321 8.321 0 0 1 11.06 14.32 A 9.516 9.516 0 0 1 10.217 12.718 A 12.756 12.756 0 0 1 9.7 11.2 A 12.565 12.565 0 0 1 9.067 12.961 A 9.865 9.865 0 0 1 8.34 14.3 A 7.804 7.804 0 0 1 6.951 15.917 A 6.865 6.865 0 0 1 5.96 16.64 A 7.72 7.72 0 0 1 2.976 13.389 A 10.437 10.437 0 0 1 2.4 12 Q 1.54 9.44 1.54 5.34 L 1.54 5 A 1.901 1.901 0 0 0 1.518 4.699 Q 1.461 4.347 1.26 4.16 Q 0.98 3.9 0.24 3.82 L 0.02 3.8 L 0 3.54 L 0.28 3.56 L 1.84 3.66 L 2.6 3.66 L 4.16 3.56 L 4.44 3.54 L 4.42 3.8 L 4.2 3.82 Q 3.619 3.883 3.322 4.044 A 0.812 0.812 0 0 0 3.18 4.14 A 0.68 0.68 0 0 0 2.999 4.398 Q 2.9 4.632 2.9 5 L 2.9 5.28 A 46.198 46.198 0 0 0 2.974 7.994 Q 3.141 10.812 3.68 12.63 A 9.995 9.995 0 0 0 4.176 13.969 Q 4.882 15.502 5.96 16.12 A 3.6 3.6 0 0 0 7.03 15.16 Q 7.709 14.275 8.17 12.808 A 12.723 12.723 0 0 0 8.23 12.61 Q 9.02 9.94 9.02 5.28 L 9.02 5 A 1.901 1.901 0 0 0 8.998 4.699 Q 8.941 4.347 8.74 4.16 Q 8.46 3.9 7.72 3.82 L 7.5 3.8 L 7.48 3.54 L 7.76 3.56 L 9.32 3.66 L 10.08 3.66 L 11.64 3.56 L 11.92 3.54 L 11.9 3.8 L 11.68 3.82 Q 11.099 3.883 10.802 4.044 A 0.812 0.812 0 0 0 10.66 4.14 A 0.68 0.68 0 0 0 10.479 4.398 Q 10.38 4.632 10.38 5 L 10.38 5.28 A 46.198 46.198 0 0 0 10.454 7.994 Q 10.621 10.812 11.16 12.63 A 9.995 9.995 0 0 0 11.656 13.969 Q 12.362 15.502 13.44 16.12 A 3.6 3.6 0 0 0 14.51 15.16 Q 15.189 14.275 15.65 12.808 A 12.723 12.723 0 0 0 15.71 12.61 Q 16.5 9.94 16.5 5.28 L 16.5 5 A 1.901 1.901 0 0 0 16.478 4.699 Q 16.421 4.347 16.22 4.16 Q 15.94 3.9 15.2 3.82 L 14.98 3.8 L 14.96 3.54 L 15.24 3.56 L 16.8 3.66 L 17.56 3.66 L 19.12 3.56 Z M 137.04 15.94 L 137.06 16.2 L 136.78 16.18 L 135.22 16.08 L 134.46 16.08 L 132.9 16.18 L 132.62 16.2 L 132.64 15.94 L 132.86 15.92 A 4.225 4.225 0 0 0 133.201 15.87 Q 133.535 15.806 133.738 15.696 A 0.812 0.812 0 0 0 133.88 15.6 A 0.68 0.68 0 0 0 134.061 15.342 Q 134.16 15.108 134.16 14.74 L 134.16 10.18 L 126.84 10.18 L 126.84 14.74 A 1.901 1.901 0 0 0 126.862 15.041 Q 126.919 15.393 127.12 15.58 Q 127.4 15.84 128.14 15.92 L 128.36 15.94 L 128.38 16.2 L 128.1 16.18 L 126.54 16.08 L 125.78 16.08 L 124.22 16.18 L 123.94 16.2 L 123.96 15.94 L 124.18 15.92 Q 124.761 15.857 125.058 15.696 A 0.812 0.812 0 0 0 125.2 15.6 A 0.68 0.68 0 0 0 125.381 15.342 Q 125.48 15.108 125.48 14.74 L 125.48 5.02 A 1.901 1.901 0 0 0 125.458 4.719 Q 125.401 4.367 125.2 4.18 Q 124.92 3.92 124.18 3.84 L 123.96 3.82 L 123.94 3.56 L 124.22 3.58 L 125.78 3.68 L 126.54 3.68 L 128.1 3.58 L 128.38 3.56 L 128.36 3.82 L 128.14 3.84 Q 127.559 3.903 127.262 4.064 A 0.812 0.812 0 0 0 127.12 4.16 A 0.68 0.68 0 0 0 126.939 4.418 Q 126.84 4.652 126.84 5.02 L 126.84 8.26 L 134.16 8.26 L 134.16 5.02 A 1.901 1.901 0 0 0 134.138 4.719 Q 134.081 4.367 133.88 4.18 Q 133.6 3.92 132.86 3.84 L 132.64 3.82 L 132.62 3.56 L 132.9 3.58 L 134.46 3.68 L 135.22 3.68 L 136.78 3.58 L 137.06 3.56 L 137.04 3.82 L 136.82 3.84 A 4.225 4.225 0 0 0 136.479 3.89 Q 136.145 3.954 135.942 4.064 A 0.812 0.812 0 0 0 135.8 4.16 A 0.68 0.68 0 0 0 135.619 4.418 Q 135.52 4.652 135.52 5.02 L 135.52 14.74 A 1.901 1.901 0 0 0 135.542 15.041 Q 135.599 15.393 135.8 15.58 Q 136.08 15.84 136.82 15.92 L 137.04 15.94 Z M 178.68 7.18 L 178.96 7.16 L 178.94 7.44 L 178.72 7.46 A 3.827 3.827 0 0 0 178.438 7.502 Q 177.979 7.59 177.822 7.768 A 0.381 0.381 0 0 0 177.82 7.77 A 0.606 0.606 0 0 0 177.717 7.948 Q 177.646 8.128 177.627 8.411 A 3.395 3.395 0 0 0 177.62 8.64 L 177.62 8.72 A 16.404 16.404 0 0 1 177.507 10.701 Q 177.331 12.147 176.88 13.28 Q 176.04 15.42 174.22 16.48 Q 173.22 15.9 172.53 15 Q 171.84 14.1 171.46 12.98 Q 171.06 14.14 170.44 14.96 Q 169.74 15.88 168.72 16.48 A 6.006 6.006 0 0 1 166.367 13.973 A 7.745 7.745 0 0 1 166.06 13.3 A 9.758 9.758 0 0 1 165.514 11.366 Q 165.3 10.173 165.3 8.76 L 165.3 8.64 Q 165.3 8.149 165.174 7.896 A 0.592 0.592 0 0 0 165.1 7.78 Q 164.9 7.54 164.2 7.46 L 163.98 7.44 L 163.96 7.16 L 164.24 7.18 L 165.04 7.26 A 2.98 2.98 0 0 0 165.15 7.269 Q 165.33 7.28 165.6 7.28 L 166.32 7.28 Q 166.64 7.28 166.99 7.24 Q 167.34 7.2 167.68 7.18 L 167.96 7.16 L 167.94 7.44 L 167.72 7.46 A 3.827 3.827 0 0 0 167.438 7.502 Q 166.979 7.59 166.822 7.768 A 0.381 0.381 0 0 0 166.82 7.77 A 0.606 0.606 0 0 0 166.717 7.948 Q 166.646 8.128 166.627 8.411 A 3.395 3.395 0 0 0 166.62 8.64 L 166.62 8.76 Q 166.62 11.691 167.088 13.422 A 7.947 7.947 0 0 0 167.15 13.64 Q 167.469 14.698 167.972 15.33 A 2.544 2.544 0 0 0 168.72 15.98 A 2.452 2.452 0 0 0 169.481 15.307 Q 169.733 14.978 169.939 14.532 A 6.68 6.68 0 0 0 170.27 13.64 A 10.363 10.363 0 0 0 170.561 12.325 Q 170.784 10.929 170.799 8.997 A 36.146 36.146 0 0 0 170.8 8.72 L 170.8 8.64 Q 170.8 8.149 170.674 7.896 A 0.592 0.592 0 0 0 170.6 7.78 Q 170.4 7.54 169.7 7.46 L 169.48 7.44 L 169.46 7.16 L 169.74 7.18 L 170.54 7.26 A 2.98 2.98 0 0 0 170.65 7.269 Q 170.83 7.28 171.1 7.28 L 171.82 7.28 Q 172.14 7.28 172.49 7.24 Q 172.84 7.2 173.18 7.18 L 173.46 7.16 L 173.44 7.44 L 173.22 7.46 A 3.827 3.827 0 0 0 172.938 7.502 Q 172.479 7.59 172.322 7.768 A 0.381 0.381 0 0 0 172.32 7.77 A 0.606 0.606 0 0 0 172.217 7.948 Q 172.146 8.128 172.127 8.411 A 3.395 3.395 0 0 0 172.12 8.64 L 172.12 8.76 Q 172.12 11.691 172.588 13.422 A 7.947 7.947 0 0 0 172.65 13.64 Q 172.969 14.698 173.472 15.33 A 2.544 2.544 0 0 0 174.22 15.98 A 2.452 2.452 0 0 0 174.981 15.307 Q 175.233 14.978 175.439 14.532 A 6.68 6.68 0 0 0 175.77 13.64 A 10.363 10.363 0 0 0 176.061 12.325 Q 176.284 10.929 176.299 8.997 A 36.146 36.146 0 0 0 176.3 8.72 L 176.3 8.64 Q 176.3 8.149 176.174 7.896 A 0.592 0.592 0 0 0 176.1 7.78 Q 175.9 7.54 175.2 7.46 L 174.98 7.44 L 174.96 7.16 L 175.24 7.18 L 176.04 7.26 A 2.98 2.98 0 0 0 176.15 7.269 Q 176.33 7.28 176.6 7.28 L 177.32 7.28 Q 177.64 7.28 177.99 7.24 Q 178.34 7.2 178.68 7.18 Z M 76.24 15.92 L 76.26 16.2 L 75.98 16.18 L 75.18 16.1 Q 74.98 16.08 74.62 16.08 L 73.96 16.08 Q 73.64 16.08 73.29 16.12 Q 72.94 16.16 72.6 16.18 L 72.48 16.2 L 72.5 15.9 Q 73.24 15.82 73.45 15.59 A 0.605 0.605 0 0 0 73.561 15.406 Q 73.633 15.227 73.653 14.946 A 3.241 3.241 0 0 0 73.66 14.72 L 73.66 8.32 L 70.76 9.08 L 70.76 14.72 Q 70.76 15.211 70.886 15.464 A 0.592 0.592 0 0 0 70.96 15.58 Q 71.16 15.82 71.86 15.9 L 71.94 16.2 L 71.82 16.18 L 71.02 16.1 Q 70.82 16.08 70.46 16.08 L 69.8 16.08 Q 69.48 16.08 69.13 16.12 Q 68.78 16.16 68.44 16.18 L 68.32 16.2 L 68.34 15.9 Q 69.08 15.82 69.29 15.59 A 0.605 0.605 0 0 0 69.401 15.406 Q 69.473 15.227 69.493 14.946 A 3.241 3.241 0 0 0 69.5 14.72 L 69.5 9.08 L 66.6 8.32 L 66.6 14.72 Q 66.6 15.211 66.726 15.464 A 0.592 0.592 0 0 0 66.8 15.58 Q 67 15.82 67.7 15.9 L 67.78 16.2 L 67.66 16.18 L 66.86 16.1 Q 66.66 16.08 66.3 16.08 L 65.64 16.08 Q 65.32 16.08 64.97 16.12 Q 64.62 16.16 64.28 16.18 L 64 16.2 L 64.02 15.92 L 64.24 15.9 A 3.827 3.827 0 0 0 64.522 15.858 Q 64.981 15.77 65.138 15.592 A 0.381 0.381 0 0 0 65.14 15.59 A 0.606 0.606 0 0 0 65.243 15.412 Q 65.314 15.232 65.333 14.949 A 3.395 3.395 0 0 0 65.34 14.72 L 65.34 8.64 Q 65.34 8.149 65.214 7.896 A 0.592 0.592 0 0 0 65.14 7.78 Q 64.94 7.54 64.24 7.46 L 64.02 7.44 L 64 7.16 L 64.28 7.18 A 22.253 22.253 0 0 1 64.726 7.221 Q 65.354 7.285 65.64 7.36 L 70.12 8.52 L 74.62 7.36 A 2.173 2.173 0 0 1 74.788 7.324 Q 75.152 7.258 75.98 7.18 L 76.26 7.16 L 76.24 7.44 L 76.02 7.46 A 3.827 3.827 0 0 0 75.738 7.502 Q 75.279 7.59 75.122 7.768 A 0.381 0.381 0 0 0 75.12 7.77 A 0.606 0.606 0 0 0 75.017 7.948 Q 74.946 8.128 74.927 8.411 A 3.395 3.395 0 0 0 74.92 8.64 L 74.92 14.72 Q 74.92 15.211 75.046 15.464 A 0.592 0.592 0 0 0 75.12 15.58 Q 75.32 15.82 76.02 15.9 L 76.24 15.92 Z M 104.48 2.38 L 104.72 2.38 L 103.72 5.16 L 103.42 5.16 A 2.654 2.654 0 0 0 103.449 5.044 Q 103.473 4.939 103.478 4.863 A 0.589 0.589 0 0 0 103.48 4.82 A 0.39 0.39 0 0 0 103.463 4.7 Q 103.423 4.576 103.29 4.52 Q 103.114 4.446 102.636 4.44 A 6.791 6.791 0 0 0 102.56 4.44 L 99.4 4.44 L 99.4 14.74 A 1.901 1.901 0 0 0 99.422 15.041 Q 99.479 15.393 99.68 15.58 Q 99.96 15.84 100.7 15.92 L 100.92 15.94 L 100.94 16.2 L 100.66 16.18 L 99.1 16.08 L 98.34 16.08 L 96.78 16.18 L 96.5 16.2 L 96.52 15.94 L 96.74 15.92 A 4.225 4.225 0 0 0 97.081 15.87 Q 97.415 15.806 97.618 15.696 A 0.812 0.812 0 0 0 97.76 15.6 A 0.68 0.68 0 0 0 97.941 15.342 Q 98.04 15.108 98.04 14.74 L 98.04 4.44 L 94.62 4.44 A 2.644 2.644 0 0 0 94.271 4.461 Q 94.094 4.485 93.949 4.535 A 1.112 1.112 0 0 0 93.69 4.66 Q 93.44 4.827 93.149 5.362 A 6.84 6.84 0 0 0 92.96 5.74 L 92.72 5.74 L 93.72 2.96 L 94.02 2.96 A 2.654 2.654 0 0 0 93.991 3.076 Q 93.967 3.181 93.962 3.257 A 0.589 0.589 0 0 0 93.96 3.3 A 0.39 0.39 0 0 0 93.977 3.42 Q 94.017 3.544 94.15 3.6 Q 94.326 3.674 94.804 3.68 A 6.791 6.791 0 0 0 94.88 3.68 L 98.04 3.68 L 98.04 1.46 A 1.901 1.901 0 0 0 98.018 1.159 Q 97.961 0.807 97.76 0.62 Q 97.48 0.36 96.74 0.28 L 96.52 0.26 L 96.5 0 L 96.78 0.02 L 98.34 0.12 L 99.1 0.12 L 100.66 0.02 L 100.94 0 L 100.92 0.26 L 100.7 0.28 A 4.225 4.225 0 0 0 100.359 0.33 Q 100.025 0.394 99.822 0.504 A 0.812 0.812 0 0 0 99.68 0.6 A 0.68 0.68 0 0 0 99.499 0.858 Q 99.4 1.092 99.4 1.46 L 99.4 3.68 L 102.82 3.68 A 2.644 2.644 0 0 0 103.169 3.659 Q 103.346 3.635 103.491 3.585 A 1.112 1.112 0 0 0 103.75 3.46 Q 104 3.293 104.291 2.758 A 6.84 6.84 0 0 0 104.48 2.38 Z M 195.72 12.36 L 194.46 12.36 L 194.46 14.72 Q 194.46 15.211 194.586 15.464 A 0.592 0.592 0 0 0 194.66 15.58 Q 194.86 15.82 195.56 15.9 L 195.78 15.92 L 195.8 16.2 L 195.52 16.18 L 194.72 16.1 Q 194.52 16.08 194.16 16.08 L 193.5 16.08 Q 193.18 16.08 192.83 16.12 Q 192.48 16.16 192.14 16.18 L 191.86 16.2 L 191.88 15.92 L 192.1 15.9 A 3.827 3.827 0 0 0 192.382 15.858 Q 192.841 15.77 192.998 15.592 A 0.381 0.381 0 0 0 193 15.59 A 0.606 0.606 0 0 0 193.103 15.412 Q 193.174 15.232 193.193 14.949 A 3.395 3.395 0 0 0 193.2 14.72 L 193.2 8.64 Q 193.2 8.149 193.074 7.896 A 0.592 0.592 0 0 0 193 7.78 Q 192.8 7.54 192.1 7.46 L 191.88 7.44 L 191.86 7.16 L 192.14 7.18 L 192.94 7.26 A 2.98 2.98 0 0 0 193.05 7.269 Q 193.23 7.28 193.5 7.28 L 193.64 7.28 A 3.246 3.246 0 0 0 193.708 7.279 Q 193.871 7.275 194.327 7.258 A 217.438 217.438 0 0 0 194.54 7.25 A 48.037 48.037 0 0 1 195.094 7.232 Q 195.312 7.226 195.509 7.223 A 24.98 24.98 0 0 1 195.88 7.22 A 5.339 5.339 0 0 1 196.835 7.3 Q 197.649 7.449 198.22 7.87 A 2.509 2.509 0 0 1 198.716 8.345 A 1.771 1.771 0 0 1 199.1 9.46 Q 199.1 10.38 198.48 11.1 Q 197.96 11.7 197.2 12 Q 199.24 14.16 200.8 15.52 A 15.488 15.488 0 0 0 201.827 16.356 Q 202.356 16.747 202.845 17.023 A 6.003 6.003 0 0 0 203.84 17.48 A 4.37 4.37 0 0 0 205.148 17.699 A 4.927 4.927 0 0 0 205.24 17.7 Q 206.06 17.7 206.66 17.44 Q 206.54 17.74 205.92 17.95 Q 205.35 18.143 204.594 18.159 A 6.51 6.51 0 0 1 204.46 18.16 A 5.019 5.019 0 0 1 202.946 17.911 Q 202.313 17.711 201.641 17.351 A 10.801 10.801 0 0 1 200.82 16.86 A 15.184 15.184 0 0 1 199.547 15.911 Q 198.918 15.393 198.261 14.757 A 27.356 27.356 0 0 1 197.82 14.32 L 196.18 12.6 Q 196.06 12.48 195.72 12.36 Z M 162.58 12.14 L 162.78 12.12 L 162.76 12.42 L 162.62 12.42 A 3.827 3.827 0 0 0 162.338 12.462 Q 161.879 12.55 161.722 12.728 A 0.381 0.381 0 0 0 161.72 12.73 A 0.606 0.606 0 0 0 161.617 12.908 Q 161.546 13.088 161.527 13.371 A 3.395 3.395 0 0 0 161.52 13.6 L 161.52 15.5 Q 161.137 15.749 160.368 15.999 A 12.555 12.555 0 0 1 160.04 16.1 Q 159.259 16.33 158.631 16.384 A 4.346 4.346 0 0 1 158.26 16.4 A 6.546 6.546 0 0 1 156.489 16.171 A 5.115 5.115 0 0 1 154.56 15.16 A 4.14 4.14 0 0 1 153.03 12.15 A 5.176 5.176 0 0 1 153.02 11.82 A 4.56 4.56 0 0 1 154.428 8.491 A 5.958 5.958 0 0 1 154.52 8.4 A 5.116 5.116 0 0 1 157.915 6.969 A 6.71 6.71 0 0 1 158.26 6.96 Q 159.16 6.96 160.03 7.27 A 35.74 35.74 0 0 0 160.236 7.343 Q 160.779 7.533 160.955 7.571 A 0.344 0.344 0 0 0 161.02 7.58 Q 161.18 7.58 161.32 7.5 L 161.66 9.5 L 161.34 9.5 A 3.334 3.334 0 0 0 160.961 8.743 A 2.474 2.474 0 0 0 160.13 7.97 A 3.453 3.453 0 0 0 159.146 7.605 Q 158.722 7.514 158.232 7.502 A 6.147 6.147 0 0 0 158.08 7.5 A 3.244 3.244 0 0 0 155.629 8.542 A 4.1 4.1 0 0 0 155.42 8.78 A 4.635 4.635 0 0 0 154.383 11.642 A 5.836 5.836 0 0 0 154.38 11.82 A 4.43 4.43 0 0 0 154.584 13.194 A 3.635 3.635 0 0 0 155.57 14.74 Q 156.76 15.86 158.44 15.86 Q 159.56 15.86 160.26 15.44 L 160.26 13.6 Q 160.26 13.109 160.134 12.856 A 0.592 0.592 0 0 0 160.06 12.74 Q 159.86 12.5 159.16 12.42 L 158.94 12.4 L 158.92 12.12 L 159.2 12.14 L 160 12.22 A 2.98 2.98 0 0 0 160.11 12.229 Q 160.29 12.24 160.56 12.24 L 161.22 12.24 Q 161.54 12.24 161.89 12.2 Q 162.24 12.16 162.58 12.14 Z M 209.34 6.38 L 209.64 6.38 L 208.84 8.44 L 208.52 8.44 Q 208.558 8.328 208.56 8.18 A 1.249 1.249 0 0 0 208.56 8.16 A 0.155 0.155 0 0 0 208.475 8.024 Q 208.338 7.94 207.98 7.94 L 205.86 7.94 L 205.86 14.72 Q 205.86 15.211 205.986 15.464 A 0.592 0.592 0 0 0 206.06 15.58 Q 206.26 15.82 206.96 15.9 L 207.18 15.92 L 207.2 16.2 L 206.92 16.18 L 206.12 16.1 Q 205.92 16.08 205.56 16.08 L 204.9 16.08 Q 204.58 16.08 204.23 16.12 Q 203.88 16.16 203.54 16.18 L 203.26 16.2 L 203.28 15.92 L 203.5 15.9 A 3.827 3.827 0 0 0 203.782 15.858 Q 204.241 15.77 204.398 15.592 A 0.381 0.381 0 0 0 204.4 15.59 A 0.606 0.606 0 0 0 204.503 15.412 Q 204.574 15.232 204.593 14.949 A 3.395 3.395 0 0 0 204.6 14.72 L 204.6 7.94 L 202.28 7.94 A 1.939 1.939 0 0 0 202.031 7.955 Q 201.909 7.971 201.809 8.004 A 0.761 0.761 0 0 0 201.61 8.1 Q 201.435 8.222 201.231 8.587 A 4.787 4.787 0 0 0 201.1 8.84 L 200.8 8.84 L 201.58 6.78 L 201.92 6.78 Q 201.882 7.006 201.88 7.037 A 0.044 0.044 0 0 0 201.88 7.04 A 0.177 0.177 0 0 0 201.979 7.198 Q 202.12 7.28 202.46 7.28 L 204.6 7.28 L 204.6 6.16 Q 204.6 5.669 204.474 5.416 A 0.592 0.592 0 0 0 204.4 5.3 Q 204.2 5.06 203.5 4.98 L 203.28 4.96 L 203.26 4.68 L 203.54 4.7 L 204.34 4.78 A 2.98 2.98 0 0 0 204.45 4.789 Q 204.63 4.8 204.9 4.8 L 205.56 4.8 Q 205.88 4.8 206.23 4.76 Q 206.58 4.72 206.92 4.7 L 207.2 4.68 L 207.18 4.96 L 206.96 4.98 A 3.827 3.827 0 0 0 206.678 5.022 Q 206.219 5.11 206.062 5.288 A 0.381 0.381 0 0 0 206.06 5.29 A 0.606 0.606 0 0 0 205.957 5.468 Q 205.886 5.648 205.867 5.931 A 3.395 3.395 0 0 0 205.86 6.16 L 205.86 7.28 L 208.18 7.28 A 1.769 1.769 0 0 0 208.417 7.265 Q 208.534 7.249 208.63 7.216 A 0.715 0.715 0 0 0 208.82 7.12 Q 209.036 6.963 209.33 6.399 A 6.901 6.901 0 0 0 209.34 6.38 Z M 28.32 14.34 L 28.76 14.3 A 8.395 8.395 0 0 0 28.515 14.725 Q 28.407 14.928 28.327 15.11 A 3.692 3.692 0 0 0 28.22 15.38 A 3.312 3.312 0 0 0 28.176 15.51 Q 28.105 15.735 28 16.14 L 25.72 16.08 L 23.34 16.08 Q 23.02 16.08 22.67 16.12 Q 22.32 16.16 21.98 16.18 L 21.7 16.2 L 21.72 15.92 L 21.94 15.9 A 3.827 3.827 0 0 0 22.222 15.858 Q 22.681 15.77 22.838 15.592 A 0.381 0.381 0 0 0 22.84 15.59 A 0.606 0.606 0 0 0 22.943 15.412 Q 23.014 15.232 23.033 14.949 A 3.395 3.395 0 0 0 23.04 14.72 L 23.04 8.64 Q 23.04 8.149 22.914 7.896 A 0.592 0.592 0 0 0 22.84 7.78 Q 22.64 7.54 21.94 7.46 L 21.72 7.44 L 21.7 7.16 L 21.98 7.18 L 22.78 7.26 A 2.98 2.98 0 0 0 22.89 7.269 Q 23.07 7.28 23.34 7.28 L 27.98 7.28 L 28.32 8.92 L 28 8.9 A 5.435 5.435 0 0 0 27.921 8.627 Q 27.796 8.238 27.666 8.095 A 0.368 0.368 0 0 0 27.63 8.06 Q 27.452 7.91 26.882 7.901 A 4.773 4.773 0 0 0 26.8 7.9 L 24.3 7.86 L 24.3 10.94 L 27.56 10.94 L 27.56 11.5 L 24.3 11.5 L 24.3 14.72 A 4.317 4.317 0 0 0 24.304 14.901 Q 24.315 15.183 24.368 15.305 A 0.225 0.225 0 0 0 24.4 15.36 Q 24.488 15.466 24.874 15.478 A 3.334 3.334 0 0 0 24.98 15.48 L 26.52 15.48 Q 27.28 15.48 27.58 15.28 A 1.091 1.091 0 0 0 27.749 15.136 Q 27.915 14.967 28.116 14.666 A 7.531 7.531 0 0 0 28.32 14.34 Z M 85.48 14.34 L 85.92 14.3 A 8.395 8.395 0 0 0 85.675 14.725 Q 85.567 14.928 85.487 15.11 A 3.692 3.692 0 0 0 85.38 15.38 A 3.312 3.312 0 0 0 85.336 15.51 Q 85.265 15.735 85.16 16.14 L 82.88 16.08 L 80.5 16.08 Q 80.18 16.08 79.83 16.12 Q 79.48 16.16 79.14 16.18 L 78.86 16.2 L 78.88 15.92 L 79.1 15.9 A 3.827 3.827 0 0 0 79.382 15.858 Q 79.841 15.77 79.998 15.592 A 0.381 0.381 0 0 0 80 15.59 A 0.606 0.606 0 0 0 80.103 15.412 Q 80.174 15.232 80.193 14.949 A 3.395 3.395 0 0 0 80.2 14.72 L 80.2 8.64 Q 80.2 8.149 80.074 7.896 A 0.592 0.592 0 0 0 80 7.78 Q 79.8 7.54 79.1 7.46 L 78.88 7.44 L 78.86 7.16 L 79.14 7.18 L 79.94 7.26 A 2.98 2.98 0 0 0 80.05 7.269 Q 80.23 7.28 80.5 7.28 L 85.14 7.28 L 85.48 8.92 L 85.16 8.9 A 5.435 5.435 0 0 0 85.081 8.627 Q 84.956 8.238 84.826 8.095 A 0.368 0.368 0 0 0 84.79 8.06 Q 84.612 7.91 84.042 7.901 A 4.773 4.773 0 0 0 83.96 7.9 L 81.46 7.86 L 81.46 10.94 L 84.72 10.94 L 84.72 11.5 L 81.46 11.5 L 81.46 14.72 A 4.317 4.317 0 0 0 81.464 14.901 Q 81.475 15.183 81.528 15.305 A 0.225 0.225 0 0 0 81.56 15.36 Q 81.648 15.466 82.034 15.478 A 3.334 3.334 0 0 0 82.14 15.48 L 83.68 15.48 Q 84.44 15.48 84.74 15.28 A 1.091 1.091 0 0 0 84.909 15.136 Q 85.075 14.967 85.276 14.666 A 7.531 7.531 0 0 0 85.48 14.34 Z M 48.16 13.62 L 48.52 13.62 L 48.28 15.56 A 2.584 2.584 0 0 1 47.961 15.742 Q 47.61 15.914 47.086 16.075 A 10.64 10.64 0 0 1 46.9 16.13 A 7.621 7.621 0 0 1 46.108 16.315 Q 45.68 16.389 45.29 16.399 A 4.606 4.606 0 0 1 45.18 16.4 A 6.546 6.546 0 0 1 43.409 16.171 A 5.115 5.115 0 0 1 41.48 15.16 A 4.14 4.14 0 0 1 39.95 12.15 A 5.176 5.176 0 0 1 39.94 11.82 A 4.56 4.56 0 0 1 41.348 8.491 A 5.958 5.958 0 0 1 41.44 8.4 A 5.116 5.116 0 0 1 44.835 6.969 A 6.71 6.71 0 0 1 45.18 6.96 Q 45.94 6.96 46.58 7.16 Q 47.22 7.36 47.88 7.58 A 0.595 0.595 0 0 0 48.18 7.5 L 48.32 9.46 L 48.04 9.44 A 3.419 3.419 0 0 0 47.776 8.788 Q 47.468 8.216 46.97 7.93 A 2.946 2.946 0 0 0 46.224 7.636 Q 45.686 7.5 45 7.5 A 3.244 3.244 0 0 0 42.549 8.542 A 4.1 4.1 0 0 0 42.34 8.78 A 4.635 4.635 0 0 0 41.303 11.642 A 5.836 5.836 0 0 0 41.3 11.82 A 4.43 4.43 0 0 0 41.504 13.194 A 3.635 3.635 0 0 0 42.49 14.74 Q 43.68 15.86 45.36 15.86 Q 46.64 15.86 47.26 15.44 Q 48.02 14.92 48.16 13.62 Z M 189.84 15.92 L 189.86 16.2 L 189.58 16.18 L 188.78 16.1 Q 188.58 16.08 188.22 16.08 L 187.5 16.08 Q 187.18 16.08 186.83 16.12 Q 186.48 16.16 186.14 16.18 L 185.86 16.2 L 185.88 15.92 L 186.1 15.9 A 3.827 3.827 0 0 0 186.382 15.858 Q 186.841 15.77 186.998 15.592 A 0.381 0.381 0 0 0 187 15.59 A 0.606 0.606 0 0 0 187.103 15.412 Q 187.174 15.232 187.193 14.949 A 3.395 3.395 0 0 0 187.2 14.72 L 187.2 14.6 L 187.16 13.46 L 182.46 13.46 L 182.42 14.64 L 182.42 14.72 Q 182.42 15.211 182.546 15.464 A 0.592 0.592 0 0 0 182.62 15.58 Q 182.82 15.82 183.52 15.9 L 183.74 15.92 L 183.76 16.2 L 183.48 16.18 L 182.68 16.1 Q 182.48 16.08 182.12 16.08 L 181.4 16.08 Q 181.08 16.08 180.73 16.12 Q 180.38 16.16 180.04 16.18 L 179.76 16.2 L 179.78 15.92 L 180 15.9 A 3.827 3.827 0 0 0 180.282 15.858 Q 180.741 15.77 180.898 15.592 A 0.381 0.381 0 0 0 180.9 15.59 A 0.606 0.606 0 0 0 181.003 15.412 Q 181.074 15.232 181.093 14.949 A 3.395 3.395 0 0 0 181.1 14.72 L 181.1 14.64 A 12.311 12.311 0 0 1 181.362 12.048 A 10.009 10.009 0 0 1 182.03 10.01 Q 182.96 7.96 184.8 6.88 A 6.778 6.778 0 0 1 187.465 9.738 A 8.349 8.349 0 0 1 187.62 10.06 A 9.663 9.663 0 0 1 188.371 12.606 A 12.849 12.849 0 0 1 188.52 14.6 L 188.52 14.72 Q 188.52 15.211 188.646 15.464 A 0.592 0.592 0 0 0 188.72 15.58 Q 188.92 15.82 189.62 15.9 L 189.84 15.92 Z M 211.24 15.76 L 210.92 13.88 L 211.2 13.88 A 3.723 3.723 0 0 0 211.515 14.752 Q 212.118 15.9 213.46 15.9 Q 214.36 15.9 214.93 15.46 Q 215.5 15.02 215.5 14.22 A 1.673 1.673 0 0 0 214.99 13.008 A 2.243 2.243 0 0 0 214.92 12.94 A 3.454 3.454 0 0 0 214.636 12.711 Q 214.141 12.348 213.184 11.824 A 30.077 30.077 0 0 0 213.14 11.8 A 10.658 10.658 0 0 1 212.576 11.456 Q 212.03 11.097 211.704 10.764 A 3.073 3.073 0 0 1 211.68 10.74 A 2.561 2.561 0 0 1 211.296 10.22 A 1.848 1.848 0 0 1 211.06 9.32 A 2.744 2.744 0 0 1 211.156 8.576 A 2.021 2.021 0 0 1 211.77 7.59 A 2.406 2.406 0 0 1 212.809 7.058 Q 213.176 6.968 213.606 6.961 A 4.487 4.487 0 0 1 213.68 6.96 Q 214.15 6.96 214.897 7.221 A 8.669 8.669 0 0 1 215.06 7.28 Q 215.421 7.416 215.715 7.449 A 1.635 1.635 0 0 0 215.9 7.46 L 216.16 8.9 L 215.92 8.9 A 2.558 2.558 0 0 0 215.546 8.261 A 2.07 2.07 0 0 0 214.88 7.72 A 2.432 2.432 0 0 0 214.179 7.488 A 3.329 3.329 0 0 0 213.6 7.44 A 1.611 1.611 0 0 0 213.002 7.548 A 1.486 1.486 0 0 0 212.52 7.86 A 1.375 1.375 0 0 0 212.08 8.86 A 1.72 1.72 0 0 0 212.08 8.9 A 1.131 1.131 0 0 0 212.305 9.566 Q 212.504 9.846 212.88 10.1 A 1.542 1.542 0 0 0 212.963 10.157 Q 213.175 10.294 213.757 10.622 A 61.931 61.931 0 0 0 213.86 10.68 A 20.26 20.26 0 0 1 214.632 11.121 Q 215.775 11.81 216.15 12.3 Q 216.64 12.94 216.64 13.8 A 2.234 2.234 0 0 1 216.049 15.315 A 3.211 3.211 0 0 1 215.74 15.62 Q 214.84 16.4 213.46 16.4 Q 212.72 16.4 212.04 16.14 Q 211.64 15.96 211.24 15.76 Z M 38 13.94 L 38.46 13.94 Q 37.94 14.62 37.62 15.24 Q 37.38 15.7 37.26 16.16 L 33.22 16.08 L 32.54 16.08 Q 32.22 16.08 31.87 16.12 Q 31.52 16.16 31.18 16.18 L 30.9 16.2 L 30.92 15.92 L 31.14 15.9 A 3.827 3.827 0 0 0 31.422 15.858 Q 31.881 15.77 32.038 15.592 A 0.381 0.381 0 0 0 32.04 15.59 A 0.606 0.606 0 0 0 32.143 15.412 Q 32.214 15.232 32.233 14.949 A 3.395 3.395 0 0 0 32.24 14.72 L 32.24 8.64 Q 32.24 8.149 32.114 7.896 A 0.592 0.592 0 0 0 32.04 7.78 Q 31.84 7.54 31.14 7.46 L 30.92 7.44 L 30.9 7.16 L 31.18 7.18 L 31.98 7.26 A 2.98 2.98 0 0 0 32.09 7.269 Q 32.27 7.28 32.54 7.28 L 33.2 7.28 Q 33.52 7.28 33.87 7.24 Q 34.22 7.2 34.56 7.18 L 34.84 7.16 L 34.82 7.44 L 34.6 7.46 A 3.827 3.827 0 0 0 34.318 7.502 Q 33.859 7.59 33.702 7.768 A 0.381 0.381 0 0 0 33.7 7.77 A 0.606 0.606 0 0 0 33.597 7.948 Q 33.526 8.128 33.507 8.411 A 3.395 3.395 0 0 0 33.5 8.64 L 33.5 14.72 A 4.317 4.317 0 0 0 33.504 14.901 Q 33.515 15.183 33.568 15.305 A 0.225 0.225 0 0 0 33.6 15.36 Q 33.688 15.466 34.074 15.478 A 3.334 3.334 0 0 0 34.18 15.48 L 35.66 15.48 Q 36.423 15.48 36.708 15.346 A 0.585 0.585 0 0 0 36.72 15.34 A 0.912 0.912 0 0 0 36.875 15.238 Q 37.105 15.055 37.446 14.633 A 9.847 9.847 0 0 0 37.52 14.54 L 38 13.94 Z M 60.002 14.88 A 4.568 4.568 0 0 0 61.4 11.54 A 5.304 5.304 0 0 0 61.39 11.21 A 4.085 4.085 0 0 0 59.9 8.23 A 5.171 5.171 0 0 0 57.985 7.203 A 6.421 6.421 0 0 0 56.18 6.96 A 6.71 6.71 0 0 0 55.835 6.969 A 5.116 5.116 0 0 0 52.44 8.4 A 5.958 5.958 0 0 0 52.348 8.491 A 4.56 4.56 0 0 0 50.94 11.82 A 5.176 5.176 0 0 0 50.95 12.15 A 4.14 4.14 0 0 0 52.48 15.16 A 5.115 5.115 0 0 0 54.409 16.171 A 6.546 6.546 0 0 0 56.18 16.4 A 6.703 6.703 0 0 0 56.593 16.387 A 5.084 5.084 0 0 0 59.91 14.97 A 5.821 5.821 0 0 0 60.002 14.88 Z M 114.082 14.88 A 4.568 4.568 0 0 0 115.48 11.54 A 5.304 5.304 0 0 0 115.47 11.21 A 4.085 4.085 0 0 0 113.98 8.23 A 5.171 5.171 0 0 0 112.065 7.203 A 6.421 6.421 0 0 0 110.26 6.96 A 6.71 6.71 0 0 0 109.915 6.969 A 5.116 5.116 0 0 0 106.52 8.4 A 5.958 5.958 0 0 0 106.428 8.491 A 4.56 4.56 0 0 0 105.02 11.82 A 5.176 5.176 0 0 0 105.03 12.15 A 4.14 4.14 0 0 0 106.56 15.16 A 5.115 5.115 0 0 0 108.489 16.171 A 6.546 6.546 0 0 0 110.26 16.4 A 6.703 6.703 0 0 0 110.673 16.387 A 5.084 5.084 0 0 0 113.99 14.97 A 5.821 5.821 0 0 0 114.082 14.88 Z M 149.022 14.88 A 4.568 4.568 0 0 0 150.42 11.54 A 5.304 5.304 0 0 0 150.41 11.21 A 4.085 4.085 0 0 0 148.92 8.23 A 5.171 5.171 0 0 0 147.005 7.203 A 6.421 6.421 0 0 0 145.2 6.96 A 6.71 6.71 0 0 0 144.855 6.969 A 5.116 5.116 0 0 0 141.46 8.4 A 5.958 5.958 0 0 0 141.368 8.491 A 4.56 4.56 0 0 0 139.96 11.82 A 5.176 5.176 0 0 0 139.97 12.15 A 4.14 4.14 0 0 0 141.5 15.16 A 5.115 5.115 0 0 0 143.429 16.171 A 6.546 6.546 0 0 0 145.2 16.4 A 6.703 6.703 0 0 0 145.613 16.387 A 5.084 5.084 0 0 0 148.93 14.97 A 5.821 5.821 0 0 0 149.022 14.88 Z M 60.14 11.68 A 5.016 5.016 0 0 0 59.668 10.023 A 4.483 4.483 0 0 0 58.78 8.8 Q 57.56 7.6 55.76 7.6 Q 54.16 7.6 53.18 8.64 A 3.569 3.569 0 0 0 52.212 10.905 A 4.71 4.71 0 0 0 52.2 11.24 A 6.361 6.361 0 0 0 52.202 11.403 Q 52.206 11.552 52.217 11.656 A 1.617 1.617 0 0 0 52.22 11.68 Q 52.4 13.4 53.61 14.59 A 4.092 4.092 0 0 0 56.572 15.78 A 5.322 5.322 0 0 0 56.6 15.78 A 3.869 3.869 0 0 0 57.828 15.593 A 3.218 3.218 0 0 0 59.17 14.73 A 3.604 3.604 0 0 0 60.153 12.373 A 4.727 4.727 0 0 0 60.16 12.12 A 6.361 6.361 0 0 0 60.158 11.957 Q 60.154 11.808 60.143 11.704 A 1.617 1.617 0 0 0 60.14 11.68 Z M 114.22 11.68 A 5.016 5.016 0 0 0 113.748 10.023 A 4.483 4.483 0 0 0 112.86 8.8 Q 111.64 7.6 109.84 7.6 Q 108.24 7.6 107.26 8.64 A 3.569 3.569 0 0 0 106.292 10.905 A 4.71 4.71 0 0 0 106.28 11.24 A 6.361 6.361 0 0 0 106.282 11.403 Q 106.286 11.552 106.297 11.656 A 1.617 1.617 0 0 0 106.3 11.68 Q 106.48 13.4 107.69 14.59 A 4.092 4.092 0 0 0 110.652 15.78 A 5.322 5.322 0 0 0 110.68 15.78 A 3.869 3.869 0 0 0 111.908 15.593 A 3.218 3.218 0 0 0 113.25 14.73 A 3.604 3.604 0 0 0 114.233 12.373 A 4.727 4.727 0 0 0 114.24 12.12 A 6.361 6.361 0 0 0 114.238 11.957 Q 114.234 11.808 114.223 11.704 A 1.617 1.617 0 0 0 114.22 11.68 Z M 149.16 11.68 A 5.016 5.016 0 0 0 148.688 10.023 A 4.483 4.483 0 0 0 147.8 8.8 Q 146.58 7.6 144.78 7.6 Q 143.18 7.6 142.2 8.64 A 3.569 3.569 0 0 0 141.232 10.905 A 4.71 4.71 0 0 0 141.22 11.24 A 6.361 6.361 0 0 0 141.222 11.403 Q 141.226 11.552 141.237 11.656 A 1.617 1.617 0 0 0 141.24 11.68 Q 141.42 13.4 142.63 14.59 A 4.092 4.092 0 0 0 145.592 15.78 A 5.322 5.322 0 0 0 145.62 15.78 A 3.869 3.869 0 0 0 146.848 15.593 A 3.218 3.218 0 0 0 148.19 14.73 A 3.604 3.604 0 0 0 149.173 12.373 A 4.727 4.727 0 0 0 149.18 12.12 A 6.361 6.361 0 0 0 149.178 11.957 Q 149.174 11.808 149.163 11.704 A 1.617 1.617 0 0 0 149.16 11.68 Z M 182.5 12.8 L 187.1 12.8 A 16.326 16.326 0 0 0 186.925 11.377 Q 186.808 10.687 186.635 10.11 A 7.059 7.059 0 0 0 186.31 9.23 A 5.807 5.807 0 0 0 185.9 8.469 Q 185.645 8.073 185.35 7.791 A 2.663 2.663 0 0 0 184.8 7.38 Q 184.085 7.762 183.559 8.68 A 5.957 5.957 0 0 0 183.3 9.19 A 7.306 7.306 0 0 0 182.92 10.269 Q 182.765 10.837 182.656 11.516 A 18.104 18.104 0 0 0 182.5 12.8 Z M 126.84 9.54 L 134.16 9.54 L 134.16 8.9 L 126.84 8.9 L 126.84 9.54 Z M 194.46 8.28 L 194.46 11.92 L 196.22 11.92 A 2.502 2.502 0 0 0 197.025 11.483 A 2.332 2.332 0 0 0 197.38 11.12 A 2.056 2.056 0 0 0 197.813 9.975 A 2.625 2.625 0 0 0 197.82 9.78 A 2.024 2.024 0 0 0 197.214 8.304 A 2.469 2.469 0 0 0 197.19 8.28 A 2.061 2.061 0 0 0 196.262 7.762 Q 195.936 7.674 195.549 7.662 A 4.035 4.035 0 0 0 195.42 7.66 A 12.378 12.378 0 0 0 195.177 7.662 Q 194.877 7.668 194.72 7.69 A 1.046 1.046 0 0 0 194.66 7.7 A 0.174 0.174 0 0 0 194.546 7.787 Q 194.468 7.912 194.461 8.214 A 2.67 2.67 0 0 0 194.46 8.28 Z" vector-effect="non-scaling-stroke"/></g></svg>